<svg width="14" height="17" viewBox="0 0 14 17" fill="none" xmlns="http://www.w3.org/2000/svg">
<path d="M11.222 8.446C11.222 6.214 9.422 4.36 7.19 4.36C4.958 4.36 3.158 6.214 3.158 8.446C3.158 10.66 4.958 12.46 7.19 12.46C9.422 12.46 11.222 10.66 11.222 8.446ZM10.286 8.446C10.286 10.138 8.774 11.524 7.19 11.524C5.444 11.524 4.094 10.174 4.094 8.446C4.094 6.736 5.444 5.296 7.19 5.296C8.792 5.296 10.286 6.736 10.286 8.446ZM13.904 12.352V4.612L7.19 0.76L0.476 4.612V12.352L7.19 16.204L13.904 12.352ZM12.716 11.686L7.208 14.836L1.664 11.686V5.332L7.19 2.128L12.716 5.332V11.686Z" fill="#00D2FF"/>
</svg>
