<svg width="20" height="16" viewBox="0 0 20 16" fill="none" xmlns="http://www.w3.org/2000/svg">
<path fill-rule="evenodd" clip-rule="evenodd" d="M7.55859 6.39411L9.74095 11.2235L12.9821 9.35293H12.988V5.61176L7.55859 6.39411Z" fill="#2BBDF7"/>
<path fill-rule="evenodd" clip-rule="evenodd" d="M17.1765 2.80587L15.153 2.04705L12.9883 1.87057V5.61175V13.5294L16.2353 15.4L18.8236 10.1294L17.1824 5.05881L17.1765 2.80587Z" fill="#2891F9"/>
<path fill-rule="evenodd" clip-rule="evenodd" d="M16.9883 1.87057L16.2354 3.74116V15.3706L19.4824 13.5V1.87057H16.9883Z" fill="#2BBDF7"/>
<path fill-rule="evenodd" clip-rule="evenodd" d="M16.2353 0L12.9883 1.87059L16.2353 3.74118L19.4824 1.87059L16.2353 0Z" fill="#2B6DEF"/>
<path fill-rule="evenodd" clip-rule="evenodd" d="M9.74118 7.48234L6.49412 3.84705L0 1.87057V13.5L3.24706 15.3706L4.17647 8.93528L6.49412 9.35293L9.74118 11.2235V7.48234Z" fill="#2891F9"/>
<path fill-rule="evenodd" clip-rule="evenodd" d="M3.24706 0L0 1.87059L9.74118 7.48235L11.2118 6.63529L12.9882 5.61176L3.24706 0Z" fill="#2B6DEF"/>
<path fill-rule="evenodd" clip-rule="evenodd" d="M3.24707 7.48236V15.3706L6.49413 13.5V9.35295L3.24707 7.48236Z" fill="#2BBDF7"/>
</svg>
