<?xml version="1.0" standalone="no"?>
<!DOCTYPE svg PUBLIC "-//W3C//DTD SVG 20010904//EN"
 "http://www.w3.org/TR/2001/REC-SVG-20010904/DTD/svg10.dtd">
<svg version="1.0" xmlns="http://www.w3.org/2000/svg"
 width="512.000000pt" height="512.000000pt" viewBox="0 0 512.000000 512.000000"
 preserveAspectRatio="xMidYMid meet">
<metadata>
Created by potrace 1.15, written by Peter Selinger 2001-2017
</metadata>
<g transform="translate(0.000000,512.000000) scale(0.100000,-0.100000)"
fill="#000000" stroke="none">
<path d="M2305 5113 c-1107 -119 -2003 -913 -2249 -1993 -43 -192 -51 -279
-51 -565 1 -309 12 -405 75 -650 230 -883 946 -1598 1827 -1826 246 -63 340
-73 653 -73 248 0 301 2 410 21 564 99 1047 352 1430 749 373 387 598 834 693
1374 19 109 21 162 21 410 0 313 -10 407 -73 653 -228 881 -946 1600 -1828
1828 -227 58 -334 71 -613 74 -140 2 -273 1 -295 -2z m645 -271 c241 -46 413
-102 625 -206 590 -290 1028 -812 1209 -1444 68 -236 81 -334 81 -632 0 -282
-7 -348 -61 -561 -76 -308 -237 -631 -439 -884 -76 -95 -253 -273 -350 -351
-257 -208 -580 -370 -894 -448 -213 -54 -279 -61 -561 -61 -282 0 -348 7 -561
61 -228 57 -508 179 -697 304 -546 362 -905 907 -1024 1553 -20 107 -23 155
-23 387 0 232 3 280 23 387 89 483 302 894 640 1236 367 371 815 596 1342 672
143 21 551 13 690 -13z"/>
<path d="M2304 3845 c-204 -414 -274 -547 -289 -550 -11 -3 -272 -41 -580 -85
-605 -87 -608 -87 -603 -98 2 -6 834 -819 860 -841 6 -5 -175 -1097 -197
-1189 -3 -12 -2 -22 2 -22 5 0 249 126 543 281 l535 281 45 -22 c25 -12 267
-139 539 -282 271 -142 496 -257 498 -254 3 3 -41 274 -97 602 l-102 597 88
87 c49 47 246 239 437 426 282 274 345 340 330 346 -10 4 -274 43 -588 88
-313 44 -579 85 -590 90 -14 5 -105 181 -285 549 -146 297 -268 540 -271 541
-3 0 -127 -245 -275 -545z"/>
</g>
</svg>
