<svg width="311.7" height="311.5" xmlns="http://www.w3.org/2000/svg" xmlns:svg="http://www.w3.org/2000/svg">
 <g>
  <title>Layer 1</title>
  <circle id="Oval-2" fill="#272329" cx="158" cy="154" r="90"/>
  <path d="m196,153.58474l-5,0l0,-17.41526l-51.5,0c-1.3785,0 -2.5,-1.14051 -2.5,-2.54237c0,-1.40186 1.1215,-2.54237 2.5,-2.54237l46.5,0l0,-5.08475l-46.5,0c-4.1355,0 -7.5,3.42153 -7.5,7.62712l0,44.74577c0,4.20559 3.3645,7.62712 7.5,7.62712l51.5,0l0,-17.16102l5,0l0,-15.25424zm-10,27.33051l-46.5,0c-1.3785,0 -2.5,-1.14051 -2.5,-2.54237l0,-37.55593c0.7825,0.2822 1.62363,0.43729 2.5,0.43729l46.5,0l0,12.33051l-5.75,0c-4.1355,0 -7.5,3.42153 -7.5,7.62712c0,4.20559 3.3645,7.62712 7.5,7.62712l5.75,0l0,12.07627l0,-0.00001zm5,-17.16102l-10.75,0c-1.3785,0 -2.5,-1.14051 -2.5,-2.54237c0,-1.40186 1.1215,-2.54237 2.5,-2.54237l10.75,0l0,5.08475l0,-0.00001z" id="Shape" fill="#ffffff" fill-rule="nonzero"/>
 </g>
</svg>
