<svg width="88" height="88" viewBox="0 0 88 88" fill="none" xmlns="http://www.w3.org/2000/svg">
<path fill-rule="evenodd" clip-rule="evenodd" d="M83 35.3333H78.6666V26.6667C78.6666 21.887 74.7796 18 70 18H68.3446L60.874 3.06299C59.8627 1.0505 57.4816 0.143952 55.388 0.974324L12.8303 18H9.33329C4.55363 18 0.666626 21.887 0.666626 26.6667V78.6667C0.666626 83.4463 4.55363 87.3333 9.33329 87.3333H70C74.7796 87.3333 78.6666 83.4463 78.6666 78.6667V70H83C85.3932 70 87.3333 68.0599 87.3333 65.6667V39.6667C87.3333 37.2734 85.3932 35.3333 83 35.3333ZM54.907 10.5033L58.6553 18H36.1696L54.907 10.5033ZM50.1316 61.3333H78.6666V44H50.1316L41.465 52.6667L50.1316 61.3333Z" fill="white"/>
</svg>
